<?xml version="1.0" encoding="iso-8859-1"?>
<!-- Generator: Adobe Illustrator 19.0.0, SVG Export Plug-In . SVG Version: 6.00 Build 0)  -->
<svg version="1.1" id="Capa_1" xmlns="http://www.w3.org/2000/svg" xmlns:xlink="http://www.w3.org/1999/xlink" x="0px" y="0px"
	 viewBox="0 0 489 489" style="enable-background:new 0 0 489 489;" xml:space="preserve">
<g>
	<g>
		<path fill="white" d="M86.3,92.6c41,2.9,81.9,7.3,123.1,4c5.1,0.4,10.2,0.8,15.3,1.1c32.3,1.7,64.7,2.2,96.8-1.9c2.1-0.3,4.2-0.8,6.1-1.4
			c0,2.7,0.1,5.6,1.1,8.6c3.3,12.2,10.1,23.7,19.6,32.7c9.6,9,21.6,15.4,35,17.6l4.4,0.6l2.2,0.3l1.6,0.1l3.1,0.1h2.4l2-0.1
			c5.3-0.2,10.6-1,15.6-2.4c10.2-2.8,19.7-7.8,27.7-14.4c16.1-13.3,25.7-33.3,26.2-53.9c-0.6,0.6-1.3,1-1.9,1.6
			c0.6-0.7,1.3-1.2,1.9-1.6c2-8.5,2.1-18.4,0.1-27.8s-6.2-18.5-12.1-26.4S443,14.7,434.3,9.7c-2.2-1.2-4.5-2.3-6.7-3.4
			c-2.3-1-4.7-1.8-7.1-2.7c-2.4-0.7-4.9-1.4-7.3-2c-2.6-0.6-5.6-0.9-8.3-1.3l-1.1-0.1h-0.7l-1.4-0.1L398.9,0h-0.7h-0.4h-1.2h-0.2
			l-1.9,0.1l-3.8,0.2c-5,0.4-10,1.3-14.9,2.7c-9.7,2.7-18.9,7.4-26.8,13.5c-8,6.1-14.7,13.7-19.9,22.3c-1.4,2.1-2.5,4.4-3.6,6.6
			c-1.2,2.2-2.1,4.6-3,6.9c-1,2.3-1.7,4.7-2.4,7.2l-1,3.7l-0.4,2.4c-16.1-1.7-32.3-3.4-48.4-3.2c-27.2,0.4-54.4,2.4-81.6,3.7
			c-48.8-11.5-98.7-4.9-148-7.3c-2.2-0.1-5.6,3.4-6.7,5.8c-2.1,4.9,0.6,9,4.8,12.1C52.6,86.9,69.3,91.4,86.3,92.6z M335.9,71.8
			c12.3-16.3,25.5-27,40.2-33.3c4.4-2,9.1-2.9,13.7-3.3c1.2,0,2.3-0.3,3.5-0.1l2.7,0.1c3,0.3,6.7,0.7,7.9,1.3
			c0.9,0.2,1.8,0.4,2.9,0.9c1.1,0.4,2.2,0.7,3.2,1.2l3,1.4l2.9,1.7c3.8,2.4,7.1,5.2,10,8.5c5.6,6.6,9.4,14.6,10.5,23
			c0.2,1,0.3,2.1,0.3,3.2l0.1,1.6l0.1,0.8l0,0v0.1l-0.2,4.7c-0.1,1.1-0.3,1.7-0.3,2.6c-0.5,3.7-1.7,8.3-3.3,12.3
			c-2.4,3.6-5.4,6.7-8.7,9.5c-10.3,8.7-24.3,11.7-36.9,8.7c-6.3-1.4-12.3-4.2-17.5-8.4c-5.3-4.1-9.7-9.4-13-15.7
			c-1-1.7-1.8-3.5-3-5.1c-0.9-1.6-2.3-3.1-3.6-4.4c-2.5-2.6-6.1-4.5-10.6-4.2c-0.9,0.1-1.7,0.3-2.5,0.5c-0.4-2.3-1.2-4.4-2.5-6.2
			C335.3,72.7,335.6,72.3,335.9,71.8z"/>
		<path fill="white" d="M22.4,239.3c-0.6,0.7-1.3,1.2-1.9,1.6c-2,8.5-2.1,18.4-0.1,27.8c2,9.4,6.2,18.5,12.1,26.4c5.9,7.9,13.5,14.7,22.2,19.7
			c2.2,1.2,4.5,2.3,6.7,3.4c2.3,1,4.7,1.8,7.1,2.7c2.4,0.7,4.9,1.4,7.3,2c2.6,0.6,5.6,0.9,8.3,1.3l1.1,0.1h0.7l1.4,0.1l2.8,0.1h0.7
			h0.4h1.2h0.2l1.9-0.1l3.8-0.2c5-0.4,10-1.3,14.9-2.7c9.7-2.7,18.9-7.4,26.8-13.5c8-6.1,14.7-13.7,19.9-22.3
			c1.4-2.1,2.5-4.4,3.6-6.6c1.2-2.2,2.1-4.6,3-6.9c1-2.3,1.7-4.7,2.4-7.2l1-3.7l0.4-2.4c16.1,1.7,32.3,3.4,48.4,3.2
			c27.2-0.4,54.4-2.4,81.6-3.7c48.8,11.5,98.7,4.9,148,7.3c2.2,0.1,5.6-3.4,6.7-5.8c2.1-4.9-0.6-9-4.8-12.1
			c-13.8-10.3-30.5-14.8-47.5-16c-41-2.9-81.9-7.3-123.1-4c-5.1-0.4-10.2-0.8-15.3-1.1c-32.3-1.7-64.7-2.2-96.8,1.9
			c-2.1,0.3-4.2,0.8-6.1,1.4c0-2.7-0.1-5.6-1.1-8.6c-3.3-12.2-10.1-23.7-19.6-32.7c-9.6-9-21.6-15.4-35-17.6l-4.4-0.6l-2.2-0.3
			l-1.6-0.1l-3.1-0.1H92l-2,0.1c-5.3,0.2-10.6,1-15.6,2.4c-10.2,2.8-19.7,7.8-27.7,14.4c-16.1,13.3-25.7,33.3-26.2,53.9
			C21.2,240.3,21.8,239.8,22.4,239.3z M52.2,245.4l0.2-4.7c0.1-1.1,0.3-1.7,0.3-2.6c0.5-3.7,1.7-8.3,3.3-12.3
			c2.4-3.6,5.4-6.7,8.7-9.5c10.3-8.7,24.3-11.7,36.9-8.7c6.3,1.4,12.3,4.2,17.5,8.4c5.3,4.1,9.7,9.4,13,15.7c1,1.7,1.8,3.5,3,5.1
			c0.9,1.6,2.3,3.1,3.6,4.4c2.5,2.6,6.1,4.5,10.6,4.2c0.9-0.1,1.7-0.3,2.5-0.5c0.4,2.3,1.2,4.4,2.5,6.2c-0.3,0.4-0.7,0.9-1,1.3
			c-12.3,16.3-25.5,27-40.2,33.3c-4.4,2-9.1,2.9-13.7,3.3c-1.2,0-2.3,0.3-3.5,0.1l-2.7-0.1c-3-0.3-6.7-0.7-7.9-1.3
			c-0.9-0.2-1.8-0.4-2.9-0.9c-1.1-0.4-2.2-0.7-3.2-1.2l-3-1.4l-2.9-1.7c-3.8-2.4-7.1-5.2-10-8.5c-5.6-6.7-9.4-14.6-10.5-23
			c-0.2-1-0.3-2.1-0.3-3.2l-0.1-1.6l-0.1-0.8l0,0L52.2,245.4z"/>
		<path fill="white" d="M38.8,411.2c13.8,10.3,30.5,14.8,47.5,16c41,2.9,81.9,7.3,123.1,4c5.1,0.4,10.2,0.8,15.3,1.1c32.3,1.7,64.7,2.2,96.8-1.9
			c2.1-0.3,4.2-0.8,6.1-1.4c0,2.7,0.1,5.6,1.1,8.6c3.3,12.2,10.1,23.7,19.6,32.7c9.6,9,21.6,15.4,35,17.6l4.4,0.6l2.2,0.3l1.6,0.1
			l3.1,0.1h2.4l2-0.1c5.3-0.2,10.6-1,15.6-2.4c10.2-2.8,19.7-7.8,27.7-14.4c16.1-13.3,25.7-33.3,26.2-53.9c-0.6,0.6-1.3,1-1.9,1.6
			c0.6-0.7,1.3-1.2,1.9-1.6c2-8.5,2.1-18.4,0.1-27.8c-2-9.4-6.2-18.5-12.1-26.4c-5.9-7.9-13.5-14.7-22.2-19.7
			c-2.2-1.2-4.5-2.3-6.7-3.4c-2.3-1-4.7-1.8-7.1-2.7c-2.4-0.7-4.9-1.4-7.3-2c-2.6-0.6-5.6-0.9-8.3-1.3l-1.1-0.1h-0.7l-1.4-0.1
			l-2.8-0.1h-0.7h-0.4h-1.2h-0.2l-1.9,0.1l-3.8,0.2c-5,0.4-10,1.3-14.9,2.7c-9.7,2.7-18.9,7.4-26.8,13.5c-8,6.1-14.7,13.7-19.9,22.3
			c-1.4,2.1-2.5,4.4-3.6,6.6c-1.2,2.2-2.1,4.6-3,6.9c-1,2.3-1.7,4.7-2.4,7.2l-1,3.7l-0.4,2.4c-16.1-1.7-32.3-3.4-48.4-3.2
			c-27.2,0.4-54.4,2.4-81.6,3.7c-48.8-11.5-98.7-4.9-148-7.3c-2.2-0.1-5.6,3.4-6.7,5.8C31.8,403.9,34.6,408,38.8,411.2z
			 M335.9,406.4c12.3-16.3,25.5-27,40.2-33.3c4.4-2,9.1-2.9,13.7-3.3c1.2,0,2.3-0.3,3.5-0.1l2.7,0.1c3,0.3,6.7,0.7,7.9,1.3
			c0.9,0.2,1.8,0.4,2.9,0.9c1.1,0.4,2.2,0.7,3.2,1.2l3,1.4l2.9,1.7c3.8,2.4,7.1,5.2,10,8.5c5.6,6.6,9.4,14.6,10.5,23
			c0.2,1,0.3,2.1,0.3,3.2l0.1,1.6l0.1,0.8l0,0v0.1l-0.2,4.7c-0.1,1.1-0.3,1.7-0.3,2.6c-0.5,3.7-1.7,8.3-3.3,12.3
			c-2.4,3.6-5.4,6.7-8.7,9.5c-10.3,8.7-24.3,11.7-36.9,8.7c-6.3-1.4-12.3-4.2-17.5-8.4c-5.3-4.1-9.7-9.4-13-15.7
			c-1-1.7-1.8-3.5-3-5.1c-0.9-1.6-2.3-3.1-3.6-4.4c-2.5-2.6-6.1-4.5-10.6-4.2c-0.9,0.1-1.7,0.3-2.5,0.5c-0.4-2.3-1.2-4.4-2.5-6.2
			C335.3,407.3,335.6,406.9,335.9,406.4z"/>
	</g>
</g>
<g>
</g>
<g>
</g>
<g>
</g>
<g>
</g>
<g>
</g>
<g>
</g>
<g>
</g>
<g>
</g>
<g>
</g>
<g>
</g>
<g>
</g>
<g>
</g>
<g>
</g>
<g>
</g>
<g>
</g>
</svg>
