<?xml version="1.0" encoding="iso-8859-1"?>
<!-- Generator: Adobe Illustrator 19.0.0, SVG Export Plug-In . SVG Version: 6.00 Build 0)  -->
<svg version="1.1" id="Capa_1" xmlns="http://www.w3.org/2000/svg" xmlns:xlink="http://www.w3.org/1999/xlink" x="0px" y="0px"
	 viewBox="0 0 490.063 490.063" style="enable-background:new 0 0 490.063 490.063;" xml:space="preserve">
<g>
	<g>
		<path fill="white" d="M141.427,376.489v0.2c0,5.1,2,10.2,5.9,14.1c10.1,10,20.7,19.5,32.4,27.9c6,4.3,13.5,5.4,19.5-1.4c3-3.4,4.5-7.3,4.6-11.1
			c2.4-1.2,5-2.6,7.8-4.3c32.5-20,66.8-47.8,100.2-78.6c0.1,0.1,0.1,0.2,0.2,0.3c8.4,10.9,16.9,22,26.7,31.5
			c15.9,15.4,32.9,29.5,49.4,44.2c19.9,36.1,53.1,60,79.7,90c1.2,1.3,5.6,0.8,8-0.3c4.7-2.2,6-6.7,5.8-11.3
			c-0.6-15.2-7-28-15.9-38.6c-21.4-25.5-41.8-52.1-67.8-73.5c-2.7-3.2-5.3-6.4-8-9.5c-17.1-19.5-35.1-38.2-56.1-53.6
			c33.7-32.2,67.5-64.4,101.2-96.6l0.1-0.1c6.7-6.5,6.9-17.2,0.4-23.9l-0.5-0.5l-38.5-39.9c-3.1-3.2-7.5-5.3-12.4-5.4h-0.6
			l-22.9-0.3l-11-0.1c-3.8-0.1-7.9-0.2-10.8-0.6c-13.1-1-26.8-4-39.6-8.5c-12.8-4.6-25.1-10.6-36.4-18.4c-5.7-3.7-11-8.1-16.3-12.5
			c-2.3-2.2-5.8-5.2-6.1-5.6c-0.9-1.1-1.6-2.3-2-3.6c-0.3-1.4-0.1-2.6,0.2-3.6c0.7-2.1,2.5-9.9,2.7-15c0.7-11.1-1.6-22.5-6.7-32.6
			c-1.7-3.5-3.8-6.7-6.1-9.8c-1.2-1.5-2.4-3-3.7-4.4l-1.9-2.1l-1.4-1.5l-11.4-11.7l0,0c-7.4-7.6-19.5-7.7-27.1-0.4l-0.4,0.4
			c-57.3,55.9-114.1,112.5-168.7,170.7l-0.8,0.9l0,0c-6.6,7.1-6.2,18.1,0.8,24.7l11.4,10.6l1.4,1.3l1.3,1.2l0.7,0.6l1.5,1.3
			c0.5,0.4,0.9,0.8,1.8,1.5c1.6,1.2,3.3,2.5,4.9,3.5c1.5,0.9,3,1.9,4.6,2.7c8.8,4.5,18.2,6.6,26.5,6.4c8.4-0.2,15.6-2.3,20.9-5.1
			s8.8-6.2,10.3-9.1c1.6-2.9,1.4-5.2-0.3-6.8c-3.2-3-9.6-2.8-17.4-3.6s-17.3-2.7-26.1-8.5c-0.7-0.5-1.5-1-2.1-1.5l-1.7-1.4l-2.7-2.6
			l-0.1-0.1l0,0c-0.1-0.1,0.8,0.8,0.4,0.4l0,0l0,0l0,0l-0.2-0.2l-0.3-0.3l-0.6-0.7l-1.3-1.4c-0.1-0.1-0.2-0.2-0.2-0.3
			c28.1-26.4,56.2-53.1,83.4-80.6c22.4-22.6,44.6-45.3,66.7-68.2l1.9,1.8c3.1,3,5.5,6.2,7.1,10c1.7,3.8,2.6,7.9,2.7,12.1
			c0.1,2-0.1,4.5-0.4,5.9c0,0.3-0.3,1.4-0.4,2l-0.5,2.3c-0.5,2.3-0.8,4.7-0.9,7c-0.4,9.5,2.7,18.6,7.9,25.8c1.1,1.6,3.5,4.3,4.2,4.9
			l0.7,0.7l0.5,0.4l0.9,0.8l1.8,1.7c2.4,2.3,4.9,4.4,7.4,6.5c10.1,8.4,21,15.6,32.6,21.7c17.9,11.3,38.1,19.5,59.4,23.7
			c5.3,1,10.6,1.9,16.4,2.4c6,0.6,9.7,0.8,15.7,1c7.2,0.2,14.4,0.4,21.6,0.7c6.5,6.9,13.2,13.7,19.8,20.5
			c-64.1,63.6-127.2,128.9-192,191.7c-2,1.9-4,4.8-5.8,7.7c-6.2-8-12.5-15.9-19.4-23.1c-0.3-8.2-0.7-16.4-1.3-24.6
			c-0.7-11.2-2.4-22.7-5-33.7c2.1-21.7-4.3-43.6-15.2-62.6c-5.4-9.6-11.8-18.6-18.9-27l-5.7-6.5l-5.1-5.5l-5.4-5.7l-5-5.5
			c-1.2-1.3-5.6-0.8-7.9,0.3c-4.6,2.2-6,6.7-5.9,11.3c0.5,15.1,6.8,27.5,13,37.8c7.9,12.9,13.6,26.8,17.7,40.8
			c2.1,7,3.9,14.1,5.5,21.2c1.7,7.1,3.1,14.2,4.4,21.5c0,3.7-0.4,7.3-0.6,10.9C141.927,353.289,141.327,364.989,141.427,376.489z"/>
	</g>
</g>
<g>
</g>
<g>
</g>
<g>
</g>
<g>
</g>
<g>
</g>
<g>
</g>
<g>
</g>
<g>
</g>
<g>
</g>
<g>
</g>
<g>
</g>
<g>
</g>
<g>
</g>
<g>
</g>
<g>
</g>
</svg>
