<?xml version="1.0" encoding="iso-8859-1"?>
<!-- Generator: Adobe Illustrator 19.0.0, SVG Export Plug-In . SVG Version: 6.00 Build 0)  -->
<svg version="1.1" id="Layer_1" xmlns="http://www.w3.org/2000/svg" xmlns:xlink="http://www.w3.org/1999/xlink" x="0px" y="0px"
	 viewBox="0 0 456.578 456.578" style="enable-background:new 0 0 456.578 456.578;" xml:space="preserve">
<g>
	<g>
		<g>
			<path fill="white" d="M435.539,0h-184c-8.284,0-15,6.716-15,15v426.578c0,8.284,6.716,15,15,15h184c8.284,0,15-6.716,15-15V15
				C450.539,6.716,443.823,0,435.539,0z"/>
			<path fill="white" d="M191.291,0H21.039c-8.284,0-15,6.716-15,15v102.249c0,8.284,6.716,15,15,15h170.252c8.284,0,15-6.716,15-15V15
				C206.291,6.716,199.575,0,191.291,0z"/>
			<path fill="white" d="M191.291,324.329H21.039c-8.284,0-15,6.716-15,15v102.249c0,8.284,6.716,15,15,15h170.252c8.284,0,15-6.716,15-15
				V339.329C206.291,331.045,199.575,324.329,191.291,324.329z"/>
			<path fill="white" d="M191.291,162.165H21.039c-8.284,0-15,6.716-15,15v102.248c0,8.284,6.716,15,15,15h170.252c8.284,0,15-6.716,15-15
				V177.165C206.291,168.881,199.575,162.165,191.291,162.165z"/>
		</g>
	</g>
</g>
<g>
</g>
<g>
</g>
<g>
</g>
<g>
</g>
<g>
</g>
<g>
</g>
<g>
</g>
<g>
</g>
<g>
</g>
<g>
</g>
<g>
</g>
<g>
</g>
<g>
</g>
<g>
</g>
<g>
</g>
</svg>
