<?xml version="1.0" encoding="iso-8859-1"?>
<!-- Generator: Adobe Illustrator 19.0.0, SVG Export Plug-In . SVG Version: 6.00 Build 0)  -->
<svg version="1.1" id="Capa_1" xmlns="http://www.w3.org/2000/svg" xmlns:xlink="http://www.w3.org/1999/xlink" x="0px" y="0px"
	 viewBox="0 0 97.026 97.026" style="enable-background:new 0 0 97.026 97.026;" xml:space="preserve">
<g>
	<g>
		<path fill="white" d="M46.713,25.513c-2.2,6.6-1,8.5-1.4,15.1c0,0.3,0.7,0.8,1.1,0.9c1,0.3,1.8-0.1,2.4-0.6c2-1.9,2.9-4.1,3.1-6.4
			c0.6-5.5,1.4-6.2,0.8-11.8c0.1-0.7,0.2-1.4,0.2-2.1c0.2-2.8,0.3-5.6,0.2-8.3c2,2.1,4,3.9,6.4,5.5c1,0.7,2.3,0.8,3.5-0.6
			c1.1-1.2,1.3-2.6,0.6-3.7c-1.3-1.8-2.6-3.6-4.2-5.2c-2.6-2.5-5.4-4.7-8.1-7.1l0,0l0,0c-0.5-1.1-1.8-1.5-2.9-1l-1.1,0.5
			c-5.9,3-9.5,8.4-14.3,12.5c-0.2,0.2-0.1,1,0.2,1.4c0.5,0.9,1.3,1.2,2.1,1.2c2.7,0.2,4.9-0.8,6.6-2.2c1.4-1.2,2.9-2.3,4.3-3.4
			c-0.2,1.3-0.3,2.6-0.3,3.9C46.113,18.113,46.513,21.813,46.713,25.513z"/>
		<path fill="white" d="M50.313,71.513c2.2-6.6,1-8.5,1.4-15.1c0-0.3-0.7-0.8-1.1-0.9c-1-0.3-1.8,0.1-2.4,0.6c-2,1.9-2.9,4.1-3.1,6.4
			c-0.6,5.5-1.4,6.2-0.8,11.8c-0.1,0.7-0.2,1.4-0.2,2.1c-0.2,2.8-0.3,5.6-0.2,8.3c-2-2.1-4-3.9-6.4-5.5c-1-0.7-2.3-0.8-3.5,0.6
			c-1.1,1.2-1.3,2.6-0.6,3.7c1.3,1.8,2.6,3.6,4.2,5.2c2.6,2.5,5.4,4.7,8.1,7.1l0,0l0,0c0.5,1.1,1.8,1.5,2.9,1l1.1-0.5
			c5.9-3,9.5-8.4,14.3-12.5c0.2-0.2,0.1-1-0.2-1.4c-0.5-0.9-1.3-1.2-2.1-1.2c-2.7-0.2-4.9,0.8-6.6,2.2c-1.4,1.2-2.9,2.3-4.3,3.4
			c0.2-1.3,0.3-2.6,0.3-3.9C50.913,78.913,50.513,75.213,50.313,71.513z"/>
		<path fill="white" d="M25.513,50.313c6.6,2.2,8.5,1,15.1,1.4c0.3,0,0.8-0.7,0.9-1.1c0.3-1-0.1-1.8-0.6-2.4c-1.9-2-4.1-2.9-6.4-3.1
			c-5.5-0.6-6.2-1.4-11.8-0.8c-0.7-0.1-1.4-0.2-2.1-0.2c-2.8-0.2-5.6-0.3-8.3-0.2c2.1-2,3.9-4,5.5-6.4c0.7-1,0.8-2.3-0.6-3.5
			c-1.2-1.1-2.6-1.3-3.7-0.6c-1.8,1.3-3.6,2.6-5.2,4.2c-2.5,2.6-4.7,5.4-7.1,8.1l0,0l0,0c-1.1,0.5-1.5,1.8-1,2.9l0.5,1.1
			c3,5.9,8.4,9.5,12.5,14.3c0.2,0.2,1,0.1,1.4-0.2c0.9-0.5,1.2-1.3,1.2-2.1c0.2-2.7-0.8-4.9-2.2-6.6c-1.2-1.4-2.3-2.9-3.4-4.3
			c1.3,0.2,2.6,0.3,3.9,0.3C18.113,50.913,21.813,50.513,25.513,50.313z"/>
		<path fill="white" d="M71.513,46.713c-6.6-2.2-8.5-1-15.1-1.4c-0.3,0-0.8,0.7-0.9,1.1c-0.3,1,0.1,1.8,0.6,2.4c1.9,2,4.1,2.9,6.4,3.1
			c5.5,0.6,6.2,1.4,11.8,0.8c0.7,0.1,1.4,0.2,2.1,0.2c2.8,0.2,5.6,0.3,8.3,0.2c-2.1,2-3.9,4-5.5,6.4c-0.7,1-0.8,2.3,0.6,3.5
			c1.2,1.1,2.6,1.3,3.7,0.6c1.8-1.3,3.6-2.6,5.2-4.2c2.5-2.6,4.7-5.4,7.1-8.1l0,0l0,0c1.1-0.5,1.5-1.8,1-2.9l-0.5-1.1
			c-3-5.9-8.4-9.5-12.5-14.3c-0.2-0.2-1-0.1-1.4,0.2c-0.9,0.5-1.2,1.3-1.2,2.1c-0.2,2.7,0.8,4.9,2.2,6.6c1.2,1.4,2.3,2.9,3.4,4.3
			c-1.3-0.2-2.6-0.3-3.9-0.3C78.913,46.113,75.213,46.513,71.513,46.713z"/>
	</g>
</g>
<g>
</g>
<g>
</g>
<g>
</g>
<g>
</g>
<g>
</g>
<g>
</g>
<g>
</g>
<g>
</g>
<g>
</g>
<g>
</g>
<g>
</g>
<g>
</g>
<g>
</g>
<g>
</g>
<g>
</g>
</svg>
