<?xml version="1.0" encoding="iso-8859-1"?>
<!DOCTYPE svg PUBLIC "-//W3C//DTD SVG 1.1//EN" "http://www.w3.org/Graphics/SVG/1.1/DTD/svg11.dtd">
<svg version="1.1" id="Capa_1" xmlns="http://www.w3.org/2000/svg" xmlns:xlink="http://www.w3.org/1999/xlink" x="0px" y="0px"
	 viewBox="0 0 48.727 48.727" style="enable-background:new 0 0 48.727 48.727;" xml:space="preserve">
<g>
	<path style="fill:white;" d="M14.112,31.62c0.039-0.074,0.066-0.156,0.063-0.253c-0.125-3.79-0.607-7.839-1.409-11.579
		c0.238-0.359,0.056-0.973-0.472-0.941c-0.856,0.05-1.625,0.402-2.291,0.932c-0.895-0.228-1.832-0.355-2.73-0.53
		c-0.141-0.027-0.202,0.183-0.06,0.217c0.809,0.192,1.631,0.436,2.457,0.601c-0.344,0.322-0.658,0.688-0.932,1.09
		c-0.816-0.193-1.697-0.258-2.503-0.389c-0.167-0.027-0.242,0.225-0.071,0.258c0.756,0.145,1.556,0.37,2.343,0.48
		c-0.268,0.446-0.496,0.92-0.671,1.405c-1.027-0.012-2.002-0.048-3.016-0.315c-0.134-0.035-0.189,0.168-0.057,0.207
		c0.942,0.275,1.979,0.461,2.974,0.4c-0.174,0.548-0.289,1.101-0.329,1.631c-1.06-0.058-2.126,0.021-3.173,0.188
		c-0.116,0.018-0.09,0.222,0.028,0.207c1.047-0.131,2.084-0.145,3.132-0.129c-0.001,0.043-0.007,0.088-0.007,0.131
		c-0.005,0.657,0.093,1.283,0.272,1.874c-0.83-0.095-1.695-0.078-2.519-0.117c-0.121-0.006-0.118,0.177,0,0.186
		c0.855,0.068,1.747,0.204,2.613,0.202c0.326,0.923,0.851,1.754,1.523,2.465c-0.838-0.223-1.684-0.417-2.528-0.615
		c-0.143-0.034-0.204,0.184-0.061,0.22c0.967,0.245,1.931,0.504,2.909,0.707c1.121,1.061,2.559,1.827,4.063,2.201
		C14.091,32.461,14.396,31.909,14.112,31.62z M8.88,26.247c-0.445-2.282,0.885-5.174,3.106-6.074c0.02,3.566,0.37,7.288,0.973,10.79
		C11.065,29.888,9.329,28.554,8.88,26.247z"/>
	<path style="fill:white;" d="M29.5,11.655c0.597-0.372-0.004-1.323-0.699-1.024c-4.246,1.829-9.69,3.485-13.186,6.571
		c-0.032,0.028-0.035,0.061-0.049,0.092c-0.19-0.041-0.403,0.089-0.359,0.352c0.016,0.099,0.04,0.197,0.056,0.296
		c-0.63-0.17-1.258-0.348-1.877-0.571c-0.085-0.031-0.115,0.099-0.036,0.132c0.641,0.269,1.298,0.521,1.967,0.721
		c0.125,0.703,0.253,1.406,0.402,2.105c-0.484-0.095-0.96-0.211-1.438-0.398c-0.125-0.049-0.216,0.165-0.092,0.219
		c0.506,0.217,1.05,0.404,1.603,0.519c0.19,0.874,0.394,1.747,0.613,2.616c-0.662-0.094-1.335-0.149-1.99-0.224
		c-0.156-0.018-0.194,0.253-0.037,0.276c0.697,0.103,1.408,0.237,2.117,0.317c0.183,0.716,0.373,1.431,0.571,2.144
		c-0.634-0.165-1.281-0.29-1.92-0.429c-0.141-0.031-0.201,0.182-0.06,0.217c0.684,0.171,1.369,0.364,2.061,0.498
		c0.211,0.756,0.425,1.511,0.646,2.264c-0.997-0.186-1.997-0.325-2.986-0.571c-0.162-0.04-0.231,0.206-0.069,0.251
		c1.022,0.285,2.09,0.563,3.153,0.651c0.237,0.804,0.475,1.608,0.716,2.408c-0.867-0.128-1.754-0.18-2.621-0.265
		c-0.099-0.01-0.124,0.161-0.024,0.176c0.904,0.134,1.821,0.31,2.736,0.391c0.224,0.741,0.448,1.48,0.67,2.218
		c-0.936-0.152-1.89-0.24-2.825-0.366c-0.15-0.02-0.216,0.207-0.064,0.231c0.989,0.149,1.987,0.342,2.986,0.459
		c0.057,0.189,0.114,0.378,0.17,0.567c0.143,0.481,0.664,0.523,0.972,0.295c1.246,0.425,2.95,0.924,4.073,0.261
		c0.157-0.092,0.207-0.234,0.199-0.374c0.181,0.034,0.391-0.041,0.445-0.248c1.905-7.262,3.2-14.729,4.569-22.109
		C29.956,11.988,29.75,11.747,29.5,11.655z M28.796,12.022c-1.712,7.326-3.353,14.775-4.189,22.257
		c-0.012-0.006-0.018-0.018-0.031-0.023c-0.631-0.26-1.404-0.103-2.079-0.127c-0.568-0.02-1.143-0.034-1.713-0.076
		c-1.181-4.454-2.297-9.004-3.808-13.382c0.008-0.039-0.007-0.075-0.035-0.102c-0.248-0.717-0.518-1.424-0.789-2.13
		c0.048,0.01,0.096,0.025,0.144,0.034c0.152,0.029,0.217-0.193,0.065-0.234c-0.105-0.028-0.209-0.056-0.314-0.084
		c-0.063-0.161-0.116-0.327-0.18-0.487c0.007-0.001,0.013,0.004,0.02,0.003c2.256-0.452,4.359-1.713,6.433-2.68
		c2.159-1.007,4.319-2.011,6.488-2.997C28.805,12.004,28.798,12.01,28.796,12.022z"/>
	<path style="fill:white;" d="M47.302,7.836c-0.099,0.009-0.198,0.027-0.297,0.037c0.43-0.205,0.355-0.88-0.206-0.946
		c-3.226-0.381-6.785-0.118-10.001,0.312c-0.162,0.022-0.506,0.041-0.875,0.095c0.141-0.667,0.265-1.338,0.393-2.008
		c0.044,0.004,0.087,0.009,0.131,0.013c0.133,0.01,0.149-0.187,0.03-0.225C36.44,5.102,36.4,5.097,36.362,5.086
		c0.054-0.285,0.112-0.569,0.167-0.852c0.178-0.919,0.524-1.922,0.551-2.852c0.047-1.643-1.815-1.276-2.997-1.302
		c-1.297-0.029-2.951-0.477-3.373,1.098c-0.556,2.073-0.64,4.408-0.789,6.556c-4.955,0.829-10.117,2.548-14.535,4.989
		c-0.01-0.033-0.02-0.066-0.03-0.099c0.068-0.055,0.046-0.18-0.06-0.199c-0.14-0.464-0.284-0.935-0.424-1.404
		c0.03-0.055,0.026-0.125-0.045-0.156c-0.001,0-0.002-0.001-0.003-0.001c-0.381-1.267-0.773-2.536-1.244-3.75
		c-0.069-0.179-0.25-0.269-0.422-0.272C13.139,6.8,13.115,6.76,13.076,6.727c-0.482-0.412-1.087-0.225-1.671-0.141
		c-0.491,0.071-0.975,0.172-1.442,0.333c-0.297-0.07-0.674,0.103-0.641,0.465c0.116,1.273,0.3,2.542,0.482,3.808
		c0.141,0.98,0.194,2.041,0.509,2.991C4.4,16.847-0.663,21.705,1.539,28.836c1.451,4.702,7.535,9.415,12.697,8.219
		c-0.081,1.333-0.057,2.677-0.073,4.013c-0.009,0.769-0.34,2.277,0.314,2.87c0.569,0.516,1.667,0.093,2.292-0.021
		c1.197-0.219,2.371-0.486,3.524-0.858c0.213,0.616,1.226,0.326,1.044-0.344c-0.456-1.686-0.881-3.41-1.508-5.046
		c0.643,0.202,1.36,0.202,2.028,0.194c0.727-0.009,1.51-0.058,2.233-0.238c-1.199,2.709-1.488,6.078-1.753,8.997
		c-0.337,0.235-0.338,0.925,0.157,1.017c2.482,0.459,5.413,1.287,7.939,1.048c0.171-0.016,0.297-0.177,0.314-0.336
		c0.065-0.045,0.124-0.108,0.155-0.209c0.543-1.75,0.551-3.694,0.665-5.516c0.086-1.38,0.152-2.759,0.032-4.129
		c0.114-0.014,0.229-0.019,0.343-0.035c0.145-0.021,0.108-0.254-0.034-0.252c-0.111,0.002-0.222,0.006-0.334,0.008
		c-0.013-0.12-0.017-0.24-0.033-0.359c2.735,0.56,5.588-0.08,7.891-1.644c0.28-0.19,0.301-0.502,0.183-0.735
		c0.295-0.146,0.252-0.555-0.054-0.674c-1.027-0.397-2.255-0.32-3.349-0.401c-1.059-0.078-2.117-0.154-3.177-0.191
		c0.037-0.239,0.074-0.486,0.111-0.726c0.287-0.014,0.577-0.016,0.86-0.05c0.167-0.02,0.176-0.259,0-0.267
		c-0.27-0.012-0.538-0.017-0.808-0.025c0.994-6.473,2.008-13.502,2.122-20.077c0.026-0.002,0.053,0,0.079-0.003
		c0.204-0.02,0.208-0.305,0-0.32c-0.025-0.002-0.05-0.003-0.075-0.005c0.005-0.422,0.02-0.848,0.017-1.265
		c1.679-0.011,3.455-0.649,5.043-1.031c2.342-0.563,4.729-1.058,7.031-1.769C47.855,8.539,47.802,7.789,47.302,7.836z M31.439,3.807
		c0.092-0.593,0.179-1.187,0.265-1.78c0.169-1.154,0.782-0.855,1.825-0.798c0.502,0.027,1.8-0.153,2.212,0.099
		c0.3-0.076,0.361-0.001,0.181,0.224c-0.086,0.15-0.134,0.313-0.144,0.486c-0.047,0.177-0.08,0.36-0.109,0.544
		c-0.736-0.27-1.637-0.205-2.312,0.114c-0.132,0.062-0.039,0.276,0.099,0.235c0.802-0.244,1.432-0.179,2.151,0.037
		c-0.008,0.051-0.016,0.103-0.025,0.153c-0.105,0.577-0.217,1.154-0.327,1.731c-0.881-0.128-1.794-0.146-2.654-0.125
		c-0.163,0.004-0.163,0.249,0,0.253c0.872,0.024,1.728,0.133,2.586,0.232C35.05,5.94,34.916,6.67,34.801,7.403
		c-1.293-0.226-2.584-0.465-3.873-0.745C31.115,5.711,31.29,4.762,31.439,3.807z M40.516,9.099c-1.653,0.388-3.64,0.671-5.224,1.456
		c-0.118-0.214-0.467-0.234-0.548,0.049c-0.029,0.101-0.051,0.208-0.079,0.309c-0.076,0.049-0.158,0.091-0.231,0.143
		c-0.17,0.122-0.097,0.345,0.1,0.373c-0.109,0.406-0.2,0.827-0.297,1.243c-0.883-0.048-1.76-0.098-2.647-0.252
		c-0.173-0.03-0.251,0.23-0.074,0.268c0.845,0.183,1.739,0.338,2.625,0.387c-0.201,0.896-0.389,1.802-0.556,2.724
		c-0.965-0.118-1.938-0.19-2.903-0.273c-0.188-0.016-0.184,0.273,0,0.292c0.945,0.098,1.897,0.227,2.848,0.293
		c-0.101,0.571-0.214,1.135-0.302,1.713c-1.127-0.191-2.292-0.232-3.423-0.171c-0.191,0.01-0.194,0.298,0,0.299
		c1.139,0.005,2.243,0.116,3.36,0.261c-0.131,0.883-0.251,1.771-0.354,2.665c-0.936-0.125-1.897-0.163-2.828-0.25
		c-0.161-0.015-0.157,0.231,0,0.25c0.92,0.107,1.86,0.27,2.793,0.341c-0.09,0.798-0.179,1.598-0.249,2.398
		c-0.9-0.128-1.807-0.174-2.721-0.16c-0.152,0.002-0.152,0.233,0,0.235c0.906,0.017,1.801,0.114,2.695,0.236
		c-0.084,0.985-0.159,1.971-0.217,2.95c-0.943-0.038-1.887-0.056-2.828-0.083c-0.146-0.004-0.144,0.217,0,0.225
		c0.934,0.054,1.872,0.117,2.809,0.162c-0.059,1.038-0.111,2.072-0.146,3.091c-1.003-0.065-2.007-0.118-3.008-0.206
		c-0.137-0.012-0.17,0.221-0.033,0.242c0.994,0.147,2.014,0.273,3.029,0.319c-0.027,0.838-0.049,1.67-0.062,2.486
		c-1.384-0.028-2.761-0.054-4.154-0.241c-0.109-0.014-0.136,0.176-0.026,0.193c1.353,0.218,2.771,0.41,4.173,0.444
		c-0.004,0.281-0.013,0.571-0.015,0.848c-0.001,0.129,0.051,0.235,0.129,0.316c0.036,0.081,0.095,0.15,0.201,0.179
		c1.183,0.324,2.376,0.51,3.593,0.642c0.693,0.075,1.433,0.176,2.16,0.186c-2.12,1.081-4.297,1.464-6.727,1.349
		c-0.128-0.147-0.41-0.112-0.465,0.099c-0.095,0.368-0.164,0.74-0.223,1.113c-1.343,0.043-2.681,0.108-4.03,0.081
		c-0.135-0.003-0.132,0.198,0,0.207c1.304,0.094,2.653,0.151,3.975,0.067c-0.078,0.579-0.128,1.162-0.165,1.747
		c-1.212,0.033-2.418,0.113-3.635,0.077c-0.137-0.004-0.134,0.201,0,0.211c1.189,0.083,2.418,0.134,3.615,0.022
		c-0.029,0.519-0.054,1.038-0.083,1.557c-0.024,0.422-0.059,0.849-0.095,1.277c-1.896-0.121-3.807-0.019-5.709-0.143
		c-0.17-0.011-0.167,0.249,0,0.264c1.859,0.159,3.822,0.363,5.686,0.175c-0.117,1.375-0.239,2.768-0.106,4.112
		c-2.152-0.855-4.809-1.044-7.107-1.308c0.56-2.982,1.606-6.034,1.897-9.031c0.012-0.125-0.048-0.223-0.137-0.291
		c0.105-0.214,0.073-0.497-0.218-0.539c-0.834-0.121-1.687-0.082-2.53-0.11c-0.835-0.028-1.739-0.2-2.549,0.027
		c-0.111,0.031-0.187,0.108-0.244,0.199c-0.61-0.099-1.226-0.18-1.836-0.266c-0.133-0.019-0.195,0.182-0.057,0.207
		c0.58,0.106,1.162,0.216,1.746,0.312c-0.026,0.038-0.044,0.08-0.039,0.133c0.056,0.543,0.144,1.084,0.243,1.623
		c-0.86-0.083-1.764,0-2.624,0.011c-0.138,0.002-0.138,0.213,0,0.214c0.875,0.012,1.796,0.098,2.669,0.008
		c0.204,1.056,0.462,2.106,0.722,3.148c-0.64,0.025-1.278,0.068-1.915,0.16c-0.508,0.073-2.257,0.585-2.601,0.297
		c-0.381-0.319-0.142-2.099-0.148-2.626c-0.011-1.008,0.003-2.021-0.058-3.028c-0.019-0.31-0.222-0.478-0.45-0.521
		c-0.047-0.079-0.118-0.146-0.231-0.156c-5.15-0.477-10.76-3.008-12.091-8.437c-1.641-6.693,3.585-10.549,8.883-12.942
		c0.6-0.271,0.25-1.028-0.293-1.081c0.016-0.945-0.21-1.918-0.327-2.843c-0.145-1.14-0.296-2.282-0.489-3.415
		c0.386,0.036,0.777,0.035,1.164,0.027c0.426-0.009,0.93,0.028,1.304-0.182c0.04,0.424,0.109,0.853,0.186,1.282
		c-0.616-0.249-1.26-0.406-1.923-0.491c-0.094-0.012-0.116,0.149-0.022,0.166c0.7,0.124,1.353,0.354,1.999,0.639
		c0.094,0.478,0.204,0.957,0.33,1.431c-0.604-0.063-1.221-0.044-1.803,0.036c-0.084,0.012-0.065,0.156,0.02,0.148
		c0.654-0.056,1.259,0.005,1.863,0.116c0.143,0.515,0.297,1.026,0.466,1.523c-0.776-0.04-1.553-0.067-2.326-0.09
		c-0.141-0.004-0.139,0.208,0,0.218c0.804,0.057,1.613,0.11,2.422,0.148c0.067,0.191,0.13,0.388,0.199,0.574
		c0.103,0.275,0.33,0.405,0.561,0.42c0.079,0.075,0.189,0.114,0.319,0.071c5.102-1.695,10.136-3.4,15.283-4.959
		c0.41-0.124,0.456-0.526,0.276-0.788c0.07-0.328,0.131-0.657,0.197-0.985c1.26,0.327,2.536,0.619,3.818,0.889
		c-0.111,0.149-0.143,0.335-0.029,0.58c0.039,0.083,0.169,0.076,0.21,0c0.017-0.032,0.096-0.059,0.206-0.083
		c0.194,0.095,0.423,0.084,0.573-0.074c0.253-0.021,0.555-0.037,0.881-0.049c1.667,0.302,3.346,0.519,5.028,0.654
		C41.21,8.938,40.862,9.018,40.516,9.099z M42.375,8.677c-0.016-0.05-0.046-0.093-0.11-0.103c-0.932-0.139-1.862-0.277-2.791-0.416
		c0.484-0.002,0.856-0.004,1.003-0.011c1.93-0.092,3.878-0.04,5.803-0.184C44.97,8.135,43.668,8.393,42.375,8.677z"/>
	<path style="fill:white;" d="M29.831,45.876c-2.002-0.413-4.112-0.508-6.144-0.725c-0.068-0.007-0.085,0.111-0.016,0.121
		c2.021,0.3,4.087,0.737,6.128,0.839C29.932,46.117,29.964,45.903,29.831,45.876z"/>
	<path style="fill:white;" d="M35.927,35.77c-3.116-0.318-6.314-0.225-9.445-0.304c-0.152-0.004-0.151,0.228,0,0.236
		c3.129,0.159,6.313,0.495,9.445,0.413C36.152,36.108,36.143,35.792,35.927,35.77z"/>
	<path style="fill:white;" d="M35.964,9.965c-1.572-0.422-3.324-0.411-4.937-0.335c-0.155,0.007-0.157,0.241,0,0.243
		c1.653,0.018,3.255,0.282,4.896,0.4C36.101,10.285,36.132,10.01,35.964,9.965z"/>
	<path style="fill:white;" d="M19.677,40.831c-0.921-0.216-1.869-0.347-2.801-0.515c-0.106-0.019-0.152,0.142-0.045,0.163
		c0.929,0.177,1.861,0.393,2.799,0.521C19.738,41.016,19.79,40.858,19.677,40.831z"/>
</g>
<g>
</g>
<g>
</g>
<g>
</g>
<g>
</g>
<g>
</g>
<g>
</g>
<g>
</g>
<g>
</g>
<g>
</g>
<g>
</g>
<g>
</g>
<g>
</g>
<g>
</g>
<g>
</g>
<g>
</g>
</svg>
