<svg height="512" viewBox="0 0 36 36" width="512" xmlns="http://www.w3.org/2000/svg"><g id="BG"><g><path d="m8.377 31.833c6.917 0 11.667 3.583 15 3.583s10.333-1.916 10.333-17.249-9.417-17.584-13.083-17.584c-17.167 0-24.5 31.25-12.25 31.25z" fill="#efefef"/></g></g><g id="effect"><g><g><path d="m21.773 2.284h2v1h-2z" fill="#a4afc1" transform="matrix(.707 -.707 .707 .707 4.702 16.918)"/></g><g><path d="m18.207 1.607h1v2h-1z" fill="#a4afc1" transform="matrix(.707 -.707 .707 .707 3.634 13.989)"/></g><g><path d="m22.273 5.672h1v2h-1z" fill="#a4afc1" transform="matrix(.707 -.707 .707 .707 1.952 18.057)"/></g></g><g><path d="m14.17 32.803c-.827 0-1.5-.673-1.5-1.5s.673-1.5 1.5-1.5 1.5.673 1.5 1.5-.672 1.5-1.5 1.5zm0-2c-.276 0-.5.224-.5.5s.224.5.5.5.5-.224.5-.5-.224-.5-.5-.5z" fill="#a4afc1"/></g></g><g id="color"><g><path d="m10.25 29.25h-2.5c-.552 0-1-.448-1-1v-13.5c0-.552.448-1 1-1h2.5c.552 0 1 .448 1 1v13.5c0 .55-.45 1-1 1z" fill="#2fdf84"/></g><g><path d="m25.251 14.75h-5.72s1-1.5 1-4c0-3-1.5-4-2.5-4s-1.5.5-1.5 3c0 3.5-5 6-5 6l-.28.14v10.66l.28.2s3.5 2.5 11 2.5h1.6c1.95 0 3.61-1.4 3.94-3.32l1.12-6.5c.42-2.45-1.46-4.68-3.94-4.68z" fill="#f3f3f1"/></g></g><g id="shadow"><g><path d="m9 28.25v-13.5c0-.552.448-1 1-1h-2.25c-.552 0-1 .448-1 1v13.5c0 .552.448 1 1 1h2.25c-.552 0-1-.448-1-1z" fill="#00b871"/></g><g><path d="m13.781 26.75-.28-.2v-10.66l.28-.14s5-2.5 5-6c0-1.369.156-2.126.456-2.542-.403-.32-.838-.458-1.206-.458-1 0-1.5.5-1.5 3 0 3.5-5 6-5 6l-.28.14v10.66l.28.2s3.5 2.5 11 2.5h1.6c.042 0 .081-.01.122-.011-7.129-.115-10.472-2.489-10.472-2.489z" fill="#d5dbe1"/></g></g><g id="_x31_.5"><g><g><g><path d="m10.25 30h-2.5c-.965 0-1.75-.785-1.75-1.75v-13.5c0-.965.785-1.75 1.75-1.75h2.5c.965 0 1.75.785 1.75 1.75v13.5c0 .965-.785 1.75-1.75 1.75zm-2.5-15.5c-.138 0-.25.112-.25.25v13.5c0 .138.112.25.25.25h2.5c.136 0 .25-.114.25-.25v-13.5c0-.138-.112-.25-.25-.25z"/></g></g><g><g><path d="m24.131 30h-1.6c-7.652 0-11.285-2.532-11.436-2.64l-.28-.2.872-1.221.28.2c.031.022 3.44 2.36 10.564 2.36h1.6c1.586 0 2.932-1.134 3.201-2.697l1.12-6.5c.163-.949-.099-1.915-.718-2.649-.618-.733-1.523-1.153-2.483-1.153h-5.72c-.276 0-.531-.152-.661-.396-.131-.244-.116-.54.037-.77.006-.01.874-1.368.874-3.584 0-2.384-1.046-3.25-1.75-3.25-.369 0-.75 0-.75 2.25 0 3.918-5.193 6.56-5.415 6.671l-.28.14-.671-1.342.28-.14c.045-.022 4.585-2.337 4.585-5.329 0-1.814.174-3.75 2.25-3.75 1.124 0 3.25.993 3.25 4.75 0 1.382-.284 2.49-.566 3.25h4.536c1.403 0 2.727.615 3.63 1.687.905 1.073 1.287 2.484 1.049 3.871l-1.12 6.5c-.392 2.284-2.359 3.942-4.678 3.942z"/></g></g></g></g></svg>