<svg height="512" viewBox="0 0 36 36" width="512" xmlns="http://www.w3.org/2000/svg"><g id="BG"><g><path d="m8.114 5.564c-1.805 6.677-6.504 10.327-7.374 13.545s-.847 10.475 13.955 14.477 19.432-4.501 20.388-8.041c4.481-16.572-23.772-31.807-26.969-19.981z" fill="#efefef"/></g></g><g id="effect"><g><g><path d="m4.714 3.169h1v2h-1z" fill="#a4afc1" transform="matrix(.707 -.707 .707 .707 -1.421 4.908)"/></g><g><path d="m4.038 7.735h2v1h-2z" fill="#a4afc1" transform="matrix(.707 -.707 .707 .707 -4.347 5.974)"/></g><g><path d="m8.104 3.669h2v1h-2z" fill="#a4afc1" transform="matrix(.707 -.707 .707 .707 -.282 7.658)"/></g></g><g><path d="m24.175 26.462c-.827 0-1.5-.673-1.5-1.5s.673-1.5 1.5-1.5 1.5.673 1.5 1.5-.673 1.5-1.5 1.5zm0-2c-.276 0-.5.224-.5.5s.224.5.5.5.5-.224.5-.5-.224-.5-.5-.5z" fill="#a4afc1"/></g></g><g id="color"><g><path d="m25.75 6.75h2.5c.552 0 1 .448 1 1v13.5c0 .552-.448 1-1 1h-2.5c-.552 0-1-.448-1-1v-13.5c0-.55.45-1 1-1z" fill="#b72525"/></g><g><path d="m24.469 9.25s-3.5-2.5-11-2.5h-1.6c-1.95 0-3.61 1.4-3.94 3.32l-1.12 6.5c-.42 2.45 1.46 4.68 3.94 4.68h5.72s-1 1.5-1 4c0 3 1.5 4 2.5 4s1.5-.5 1.5-3c0-3.5 5-6 5-6l.28-.14v-10.66z" fill="#f3f3f1"/></g></g><g id="shadow"><g><path d="m27 21.25v-13.5c0-.55.45-1 1-1h-2.25c-.55 0-1 .45-1 1v13.5c0 .552.448 1 1 1h2.25c-.552 0-1-.448-1-1z" fill="#e85252"/></g><g><g><path d="m9.059 16.57 1.12-6.5c.323-1.879 1.922-3.251 3.818-3.309-.177-.003-.346-.011-.528-.011h-1.6c-1.95 0-3.61 1.4-3.94 3.32l-1.12 6.5c-.42 2.45 1.46 4.68 3.94 4.68h2.25c-2.48 0-4.36-2.23-3.94-4.68z" fill="#d5dbe1"/></g><g><path d="m17.719 25.25c0-2.5 1-4 1-4h-2.25s-1 1.5-1 4c0 3 1.5 4 2.5 4 .452 0 .797-.115 1.044-.458-.694-.551-1.294-1.645-1.294-3.542z" fill="#d5dbe1"/></g></g></g><g id="_x31_.5"><g><g><g><path d="m28.25 23h-2.5c-.965 0-1.75-.785-1.75-1.75v-13.5c0-.965.785-1.75 1.75-1.75h2.5c.965 0 1.75.785 1.75 1.75v13.5c0 .965-.785 1.75-1.75 1.75zm-2.5-15.5c-.136 0-.25.114-.25.25v13.5c0 .138.112.25.25.25h2.5c.138 0 .25-.112.25-.25v-13.5c0-.138-.112-.25-.25-.25z"/></g></g><g><g><path d="m17.969 30c-1.124 0-3.25-.993-3.25-4.75 0-1.382.284-2.49.566-3.25h-4.536c-1.403 0-2.727-.615-3.63-1.687-.905-1.073-1.287-2.483-1.049-3.87l1.12-6.5c.393-2.285 2.36-3.943 4.679-3.943h1.6c7.652 0 11.285 2.532 11.436 2.64l.28.2-.872 1.221-.28-.2c-.031-.022-3.44-2.36-10.564-2.36h-1.6c-1.586 0-2.932 1.134-3.201 2.697l-1.12 6.5c-.163.949.099 1.915.718 2.649.618.733 1.523 1.153 2.483 1.153h5.72c.276 0 .531.152.661.396.131.244.116.54-.037.77-.006.01-.874 1.368-.874 3.584 0 2.384 1.046 3.25 1.75 3.25.369 0 .75 0 .75-2.25 0-3.918 5.193-6.56 5.415-6.671l.28-.14.671 1.342-.28.14c-.045.022-4.585 2.337-4.585 5.329-.001 1.814-.175 3.75-2.251 3.75z"/></g></g></g></g></svg>